<?xml version="1.0" encoding="UTF-8"?>
<svg version="1.1" viewBox="0 0 768 384" xml:space="preserve" xmlns="http://www.w3.org/2000/svg" xmlns:cc="http://creativecommons.org/ns#" xmlns:dc="http://purl.org/dc/elements/1.1/" xmlns:rdf="http://www.w3.org/1999/02/22-rdf-syntax-ns#"><metadata><rdf:RDF><cc:Work rdf:about=""><dc:format>image/svg+xml</dc:format><dc:type rdf:resource="http://purl.org/dc/dcmitype/StillImage"/><dc:title/></cc:Work></rdf:RDF></metadata><defs><linearGradient id="linearGradient92-3" x2="1" gradientTransform="matrix(-181.14 -181.14 181.14 -181.14 205.73 198.28)" gradientUnits="userSpaceOnUse"><stop stop-color="#4abcc4" offset="0"/><stop stop-color="#62c784" offset="1"/></linearGradient><linearGradient id="linearGradient108-5" x2="1" gradientTransform="matrix(181.14 181.14 -181.14 181.14 573.1 185.47)" gradientUnits="userSpaceOnUse"><stop stop-color="#4abcc4" offset="0"/><stop stop-color="#62c784" offset="1"/></linearGradient><clipPath><path d="m1559.9 2433.2c304.61-304.6 304.61-798.47 0-1103.1s-798.48-304.61-1103.1 0-304.61 798.48 0 1103.1c304.61 304.61 798.48 304.61 1103.1 0z"/></clipPath><clipPath><path d="m4242.2 381.4c-304.6 304.61-304.6 798.47 0 1103.1 304.61 304.61 798.48 304.61 1103.1 0s304.61-798.47 0-1103.1c-304.61-304.61-798.48-304.61-1103.1 0z"/></clipPath><filter id="filter261" x="-.0051292" y="-.033627" width="1.0103" height="1.0673" color-interpolation-filters="sRGB"><feGaussianBlur stdDeviation="0.48590982"/></filter></defs><g transform="matrix(1.3333 0 0 -1.3333 0 384)" style="mix-blend-mode:normal"><g transform="matrix(.75 0 0 -.75 0 288)" display="none"><g><text x="305.47253" y="126.86954" fill="#000000" font-family="sans-serif" font-size="40px" style="line-height:1.25" xml:space="preserve"><tspan x="305.47253" y="126.86954"/></text><path d="m419.78 75.431-7.9746 0.0293-94.734 0.34375a7.9766 7.9766 0 0 0-7.9473 8.1113l2.5781 153.34a7.9766 7.9766 0 0 0 8.0703 7.8418c50.19-0.59981 74.676-19.975 84.537-40.061 9.8608-20.085 5.7109-39.834 5.7109-39.834a7.9766 7.9766 0 0 0-7.8867-6.3887l-59.021 0.51951 0.13867 15.949 7.9766-0.0684 43.605-0.38282c0.14228 5.6881-0.45058 14.231-4.8418 23.176-6.8135 13.878-22.333 28.47-62.479 30.699l-2.3027-136.97 94.629-0.34571z" color="#000000" color-rendering="auto" display="inline" dominant-baseline="auto" fill="#1a1a1a" image-rendering="auto" shape-rendering="auto" solid-color="#000000" stop-color="#000000" stroke-width="0" style="font-feature-settings:normal;font-variant-alternates:normal;font-variant-caps:normal;font-variant-east-asian:normal;font-variant-ligatures:normal;font-variant-numeric:normal;font-variant-position:normal;font-variation-settings:normal;inline-size:0;isolation:auto;mix-blend-mode:normal;paint-order:normal;shape-margin:0;shape-padding:0;text-decoration-color:#000000;text-decoration-line:none;text-decoration-style:solid;text-indent:0;text-orientation:mixed;text-transform:none;white-space:normal"/><path transform="translate(11.454 -67.967)" d="m404.99 143.42-6.3125 0.0234-94.734 0.34375c-1.667 6e-3 -3.3216 0.70575-4.4883 1.8965s-1.8309 2.8586-1.8027 4.5254l2.5781 153.34c0.0277 1.6475 0.73231 3.2736 1.9141 4.4219 1.1817 1.1483 2.827 1.8048 4.4746 1.7852 49.768-0.59477 73.497-19.643 83.064-39.131 9.5895-19.532 5.5762-38.76 5.5762-38.76a1.663 1.663 0 0 1-2e-3 -0.0117c-0.57772-2.8445-3.3417-5.082-6.2441-5.0566l-51.047 0.44921-6.3105 0.0566 0.10937 12.623 6.3144-0.0527 43.605-0.38281a1.663 1.663 0 0 1 1.6758 1.6211c0.14622 5.8451-0.462 14.682-5.0117 23.949-7.0505 14.361-23.356 29.377-63.879 31.627a1.663 1.663 0 0 1-1.7539-1.6328l-2.3027-136.97a1.663 1.663 0 0 1 1.6562-1.6894l86.652-0.31641 6.3145-0.0234z" color="#000000" color-rendering="auto" display="inline" dominant-baseline="auto" fill="#fff" image-rendering="auto" shape-rendering="auto" solid-color="#000000" stop-color="#000000" stroke-width="0" style="font-feature-settings:normal;font-variant-alternates:normal;font-variant-caps:normal;font-variant-east-asian:normal;font-variant-ligatures:normal;font-variant-numeric:normal;font-variant-position:normal;font-variation-settings:normal;inline-size:0;isolation:auto;mix-blend-mode:normal;paint-order:normal;shape-margin:0;shape-padding:0;text-decoration-color:#000000;text-decoration-line:none;text-decoration-style:solid;text-indent:0;text-orientation:mixed;text-transform:none;white-space:normal"/></g><path d="m343.13 145.45h68.073" stroke="#000" stroke-linejoin="round" stroke-miterlimit="3.3" stroke-width="15"/><path d="m343.02 144.01h64.463" fill="#f2f2f2" stroke="#fff" stroke-miterlimit="3.3" stroke-width="12.138"/></g><g display="none"><g transform="matrix(.1 0 0 .1 .47774 -.79895)" display="inline" style="mix-blend-mode:normal"><path d="m0-2.8e-5h5760v2880h-5760z" fill="#4abcc5"/><g transform="translate(16.377 -1.6772)"/></g></g><g display="none" fill="none" filter="url(#filter261)" opacity=".5529" stroke="#fff"><ellipse transform="scale(1,-1)" cx="350.02" cy="-230.88" rx="12.413" ry="10.663" display="inline" opacity="1" stroke-width="3.4434" style="mix-blend-mode:normal"/><ellipse transform="scale(1,-1)" cx="145.52" cy="-215.84" rx="10.451" ry="8.9781" display="inline" opacity="1" stroke-width="2.8993" style="mix-blend-mode:normal"/></g><g display="none" fill="none" opacity=".61244" stroke="#fff" style="mix-blend-mode:normal"><ellipse transform="scale(1,-1)" cx="388.17" cy="-192.41" rx="27.928" ry="23.992" display="inline" opacity="1" stroke-width="7.7476" style="mix-blend-mode:normal"/><ellipse transform="scale(1,-1)" cx="145.15" cy="-144.65" rx="17.717" ry="15.794" display="inline" opacity="1" stroke-width="5.0067" style="mix-blend-mode:normal"/></g><g fill="none" opacity=".83249" stroke="#fff" style="mix-blend-mode:normal"><ellipse transform="matrix(-.34749 .93768 .95551 .29495 0 0)" cx="26.807" cy="162.28" rx="27.138" ry="27.38" opacity="1" stroke-dasharray="24.4759, 8.15872" stroke-width="8.1587" style="mix-blend-mode:normal"/><ellipse transform="scale(1,-1)" cx="430.66" cy="-145.58" rx="37.456" ry="32.177" opacity="1" stroke-dasharray="31.1719, 10.3907" stroke-width="10.391" style="mix-blend-mode:normal"/></g><g transform="matrix(.75 0 0 -.75 0 288)" display="none"><path d="m209.5 54.973c40.615 40.613 40.615 106.46 0 147.08-40.615 40.615-106.46 40.615-147.08 0-40.615-40.615-40.615-106.46 0-147.08 40.615-40.615 106.46-40.615 147.08 0" display="inline" fill="url(#linearGradient92-3)" style="mix-blend-mode:normal"/><path d="m569.33 328.77c-40.613-40.615-40.613-106.46 0-147.08 40.615-40.615 106.46-40.615 147.08 0 40.615 40.615 40.615 106.46 0 147.08-40.615 40.615-106.46 40.615-147.08 0" display="inline" fill="url(#linearGradient108-5)" style="mix-blend-mode:normal"/></g><g display="none" fill="#fff" opacity=".57336" style="mix-blend-mode:normal"><path d="m371.92 128.25c-2.559 0-5.119 0.977-7.071 2.929-3.905 3.905-3.905 10.237 0 14.142l134 134c3.905 3.905 10.237 3.905 14.142 0 3.905-3.905 3.905-10.237 0-14.142l-134-134c-1.952-1.952-4.512-2.929-7.071-2.929" display="inline" opacity="1"/><path d="m67.752 7.9757c-2.559 0-5.1188 0.9762-7.0711 2.9289-3.9051 3.9051-3.9051 10.237 0 14.142l134 134c3.905 3.9051 10.237 3.9051 14.143 0 3.904-3.905 3.904-10.237 0-14.142l-134-134c-1.9527-1.9527-4.5125-2.9289-7.0715-2.9289" display="inline" opacity="1"/></g><g display="none" fill="#fff" opacity=".78726"><path d="m0.49997 39.833c-0.1281 0-0.2559 0.0492-0.3535 0.146-0.1953 0.1961-0.1953 0.5122 0 0.7071l129.33 129.33c0.196 0.196 0.51199 0.196 0.70699 0 0.19601-0.195 0.19601-0.511 0-0.707l-129.33-129.33c-0.0977-0.0968-0.2258-0.146-0.3535-0.146" display="inline" opacity="1" style="mix-blend-mode:normal"/><path d="m483.86 115.65c-0.10533 0-0.21068 0.0401-0.29133 0.11933-0.16047 0.1602-0.16047 0.41848 0 0.57787l110.28 109.52c0.16133 0.1602 0.42135 0.1602 0.58185 0 0.16133-0.15936 0.16133-0.41765 0-0.57785l-110.28-109.52c-0.0798-0.0793-0.18518-0.11933-0.29052-0.11933" display="inline" opacity="1" style="mix-blend-mode:normal"/><path d="m449.56 21.702c-0.25601 0-0.512 0.0981-0.707 0.293-0.391 0.391-0.391 1.0231 0 1.4141l99.083 99.083c0.39 0.39099 1.023 0.39099 1.414 0 0.391-0.39101 0.391-1.0231 0-1.4141l-99.083-99.083c-0.195-0.1949-0.45099-0.293-0.70699-0.293" display="inline" opacity="1" style="mix-blend-mode:normal"/><path d="m234.5 255.33c-0.12799 0-0.25599 0.049-0.354 0.146-0.195 0.196-0.195 0.512 0 0.707l31.667 31.668c0.195 0.195 0.51099 0.195 0.70699 0 0.195-0.196 0.195-0.512 0-0.708l-31.667-31.667c-0.097-0.097-0.225-0.146-0.35301-0.146" display="inline" opacity="1" style="mix-blend-mode:normal"/><path d="m35.166 171.83c-0.1277 0-0.2559 0.049-0.3535 0.146-0.1953 0.196-0.1953 0.512 0 0.707l103.33 103.33c0.196 0.196 0.51199 0.196 0.70699 0 0.19601-0.195 0.19601-0.511 0-0.707l-103.33-103.33c-0.0977-0.097-0.2254-0.146-0.3535-0.146" display="inline" opacity="1" style="mix-blend-mode:normal"/></g></g></svg>
