<svg version="1.1" viewBox="0 0 114.73 173.66" xml:space="preserve" xmlns="http://www.w3.org/2000/svg" xmlns:cc="http://creativecommons.org/ns#" xmlns:dc="http://purl.org/dc/elements/1.1/" xmlns:rdf="http://www.w3.org/1999/02/22-rdf-syntax-ns#"><metadata><rdf:RDF><cc:Work rdf:about=""><dc:format>image/svg+xml</dc:format><dc:type rdf:resource="http://purl.org/dc/dcmitype/StillImage"/><dc:title/></cc:Work></rdf:RDF></metadata><defs><linearGradient id="linearGradient92-3" x2="1" gradientTransform="matrix(-181.14 -181.14 181.14 -181.14 205.73 198.28)" gradientUnits="userSpaceOnUse"><stop stop-color="#4abcc4" offset="0"/><stop stop-color="#62c784" offset="1"/></linearGradient><linearGradient id="linearGradient108-5" x2="1" gradientTransform="matrix(181.14 181.14 -181.14 181.14 573.1 185.47)" gradientUnits="userSpaceOnUse"><stop stop-color="#4abcc4" offset="0"/><stop stop-color="#62c784" offset="1"/></linearGradient><clipPath><path d="m1559.9 2433.2c304.61-304.6 304.61-798.47 0-1103.1s-798.48-304.61-1103.1 0-304.61 798.48 0 1103.1c304.61 304.61 798.48 304.61 1103.1 0z"/></clipPath><clipPath><path d="m4242.2 381.4c-304.6 304.61-304.6 798.47 0 1103.1 304.61 304.61 798.48 304.61 1103.1 0s304.61-798.47 0-1103.1c-304.61-304.61-798.48-304.61-1103.1 0z"/></clipPath></defs><g transform="matrix(1.3333 0 0 -1.3333 -307.11 310.57)" style="mix-blend-mode:normal"><g display="none"><g transform="matrix(.1 0 0 .1 .47774 -.79895)" display="inline" style="mix-blend-mode:normal"><path d="m0-2.8e-5h5760v2880h-5760z" fill="#4abcc5"/><g transform="translate(16.377 -1.6772)"/></g></g><g transform="matrix(.75 0 0 -.75 0 288)"><g><text x="305.47253" y="126.86954" fill="#000000" font-family="sans-serif" font-size="40px" style="line-height:1.25" xml:space="preserve"><tspan x="305.47253" y="126.86954"/></text><path d="m419.78 75.431-7.9746 0.0293-94.734 0.34375a7.9766 7.9766 0 0 0-7.9473 8.1113l2.5781 153.34a7.9766 7.9766 0 0 0 8.0703 7.8418c50.19-0.59981 74.676-19.975 84.537-40.061 9.8608-20.085 5.7109-39.834 5.7109-39.834a7.9766 7.9766 0 0 0-7.8867-6.3887l-59.021 0.51951 0.13867 15.949 7.9766-0.0684 43.605-0.38282c0.14228 5.6881-0.45058 14.231-4.8418 23.176-6.8135 13.878-22.333 28.47-62.479 30.699l-2.3027-136.97 94.629-0.34571z" color="#000000" color-rendering="auto" dominant-baseline="auto" fill="#1a1a1a" image-rendering="auto" shape-rendering="auto" solid-color="#000000" stop-color="#000000" stroke-width="0" style="font-feature-settings:normal;font-variant-alternates:normal;font-variant-caps:normal;font-variant-east-asian:normal;font-variant-ligatures:normal;font-variant-numeric:normal;font-variant-position:normal;font-variation-settings:normal;inline-size:0;isolation:auto;mix-blend-mode:normal;paint-order:normal;shape-margin:0;shape-padding:0;text-decoration-color:#000000;text-decoration-line:none;text-decoration-style:solid;text-indent:0;text-orientation:mixed;text-transform:none;white-space:normal"/><path transform="translate(11.454 -67.967)" d="m404.99 143.42-6.3125 0.0234-94.734 0.34375c-1.667 6e-3 -3.3216 0.70575-4.4883 1.8965s-1.8309 2.8586-1.8027 4.5254l2.5781 153.34c0.0277 1.6475 0.73231 3.2736 1.9141 4.4219 1.1817 1.1483 2.827 1.8048 4.4746 1.7852 49.768-0.59477 73.497-19.643 83.064-39.131 9.5895-19.532 5.5762-38.76 5.5762-38.76a1.663 1.663 0 0 1-2e-3 -0.0117c-0.57772-2.8445-3.3417-5.082-6.2441-5.0566l-51.047 0.44921-6.3105 0.0566 0.10937 12.623 6.3144-0.0527 43.605-0.38281a1.663 1.663 0 0 1 1.6758 1.6211c0.14622 5.8451-0.462 14.682-5.0117 23.949-7.0505 14.361-23.356 29.377-63.879 31.627a1.663 1.663 0 0 1-1.7539-1.6328l-2.3027-136.97a1.663 1.663 0 0 1 1.6562-1.6894l86.652-0.31641 6.3145-0.0234z" color="#000000" color-rendering="auto" dominant-baseline="auto" fill="#fff" image-rendering="auto" shape-rendering="auto" solid-color="#000000" stop-color="#000000" stroke-width="0" style="font-feature-settings:normal;font-variant-alternates:normal;font-variant-caps:normal;font-variant-east-asian:normal;font-variant-ligatures:normal;font-variant-numeric:normal;font-variant-position:normal;font-variation-settings:normal;inline-size:0;isolation:auto;mix-blend-mode:normal;paint-order:normal;shape-margin:0;shape-padding:0;text-decoration-color:#000000;text-decoration-line:none;text-decoration-style:solid;text-indent:0;text-orientation:mixed;text-transform:none;white-space:normal"/></g><path d="m343.13 145.45h68.073" stroke="#000" stroke-linejoin="round" stroke-miterlimit="3.3" stroke-width="15"/><path d="m343.02 144.01h64.463" fill="#f2f2f2" stroke="#fff" stroke-miterlimit="3.3" stroke-width="12.138"/></g><g display="none" fill="none" stroke="#fff"><ellipse transform="matrix(-.3173 .94833 .96447 .26421 0 0)" cx="22.137" cy="190.16" rx="27.138" ry="27.38" display="inline" stroke-dasharray="24.4759, 8.1587" stroke-width="8.1587" style="mix-blend-mode:normal"/><ellipse transform="scale(1,-1)" cx="220.57" cy="-182.51" rx="19.28" ry="17.901" display="inline" stroke-width="5.5604" style="mix-blend-mode:normal"/><ellipse transform="scale(1,-1)" cx="425.5" cy="-177.94" rx="31.443" ry="27.011" display="inline" stroke-dasharray="26.1675, 8.72254" stroke-width="8.7225" style="mix-blend-mode:normal"/><ellipse transform="scale(1,-1)" cx="425.38" cy="-177.94" rx="14.686" ry="12.616" display="inline" stroke-width="4.0741" style="mix-blend-mode:normal"/></g><g transform="matrix(.75 0 0 -.75 0 288)" display="none"><path d="m209.5 54.973c40.615 40.613 40.615 106.46 0 147.08-40.615 40.615-106.46 40.615-147.08 0-40.615-40.615-40.615-106.46 0-147.08 40.615-40.615 106.46-40.615 147.08 0" display="inline" fill="url(#linearGradient92-3)" style="mix-blend-mode:normal"/><path d="m569.33 328.77c-40.613-40.615-40.613-106.46 0-147.08 40.615-40.615 106.46-40.615 147.08 0 40.615 40.615 40.615 106.46 0 147.08-40.615 40.615-106.46 40.615-147.08 0" display="inline" fill="url(#linearGradient108-5)" style="mix-blend-mode:normal"/></g><g display="none" fill="#fff" opacity=".57336" style="mix-blend-mode:normal"><path d="m371.92 128.25c-2.559 0-5.119 0.977-7.071 2.929-3.905 3.905-3.905 10.237 0 14.142l134 134c3.905 3.905 10.237 3.905 14.142 0 3.905-3.905 3.905-10.237 0-14.142l-134-134c-1.952-1.952-4.512-2.929-7.071-2.929" display="inline" opacity="1"/><path d="m67.752 7.9757c-2.559 0-5.1188 0.9762-7.0711 2.9289-3.9051 3.9051-3.9051 10.237 0 14.142l134 134c3.905 3.9051 10.237 3.9051 14.143 0 3.904-3.905 3.904-10.237 0-14.142l-134-134c-1.9527-1.9527-4.5125-2.9289-7.0715-2.9289" display="inline" opacity="1"/></g><g transform="matrix(.75 0 0 -.75 0 288)" display="none" fill="#fff"><path d="m158.13 141.88c-1.1947 0-2.3893-0.456-3.3-1.3667-1.8227-1.8213-1.8227-4.7773 0-6.6l120.44-120.44c1.824-1.8227 4.7787-1.8213 6.6 0 1.8227 1.8227 1.8227 4.7773 0 6.5987l-120.44 120.45c-0.912 0.91066-2.1067 1.3667-3.3 1.3667" display="inline" style="mix-blend-mode:normal"/><path d="m-11.886 360.08c-0.1708 0-0.3412-0.0656-0.47133-0.19466-0.2604-0.26147-0.2604-0.68294 0-0.9428l172.44-172.45c0.26133-0.26133 0.68266-0.26133 0.94266 0 0.26134 0.26 0.26134 0.68134 0 0.94267l-172.44 172.45c-0.13027 0.12906-0.30107 0.19466-0.47134 0.19466" display="inline" style="mix-blend-mode:normal"/><path d="m632.6 258.99c-0.14045 0-0.28091-0.0534-0.38844-0.15911-0.21397-0.2136-0.21397-0.55798 0-0.77049l147.04-146.03c0.2151-0.2136 0.5618-0.2136 0.7758 0 0.2151 0.21249 0.2151 0.55687 0 0.77047l-147.04 146.03c-0.10644 0.10571-0.2469 0.15911-0.38735 0.15911" display="inline" style="mix-blend-mode:normal"/><path d="m586.86 384.25c-0.34134 0-0.68267-0.1308-0.94267-0.39066-0.52133-0.52134-0.52133-1.3641 0-1.8855l132.11-132.11c0.52-0.52133 1.364-0.52133 1.8853 0 0.52133 0.52134 0.52133 1.3641 0 1.8855l-132.11 132.11c-0.26 0.25986-0.60133 0.39066-0.94266 0.39066" display="inline" style="mix-blend-mode:normal"/><path d="m512.11 320.97c-1.1947 0-2.3893-0.45627-3.3-1.3667-1.8227-1.8229-1.8227-4.7776 0-6.6l92.888-92.888c1.824-1.8213 4.7787-1.8213 6.6 0 1.8227 1.8227 1.8227 4.7773 0 6.6l-92.888 92.888c-0.912 0.9104-2.1067 1.3667-3.3 1.3667" display="inline" style="mix-blend-mode:normal"/><path d="m300.11 72.744c-0.17066 0-0.34133-0.06533-0.472-0.19467-0.26-0.26133-0.26-0.68267 0-0.94267l42.223-42.224c0.26-0.26 0.68133-0.26 0.94266 0 0.26 0.26133 0.26 0.68267 0 0.944l-42.223 42.223c-0.12933 0.12933-0.3 0.19467-0.47067 0.19467" display="inline" style="mix-blend-mode:normal"/><path d="m34.336 184.08c-0.17027 0-0.3412-0.0653-0.47133-0.19467-0.2604-0.26133-0.2604-0.68266 0-0.94266l137.78-137.78c0.26133-0.26133 0.68266-0.26133 0.94266 0 0.26134 0.26 0.26134 0.68133 0 0.94267l-137.78 137.78c-0.13027 0.12934-0.30053 0.19467-0.47133 0.19467" display="inline" style="mix-blend-mode:normal"/></g></g></svg>
