<?xml version="1.0" encoding="UTF-8" standalone="no"?>
<svg
   xmlns:dc="http://purl.org/dc/elements/1.1/"
   xmlns:cc="http://creativecommons.org/ns#"
   xmlns:rdf="http://www.w3.org/1999/02/22-rdf-syntax-ns#"
   xmlns:svg="http://www.w3.org/2000/svg"
   xmlns="http://www.w3.org/2000/svg"
   xmlns:sodipodi="http://sodipodi.sourceforge.net/DTD/sodipodi-0.dtd"
   xmlns:inkscape="http://www.inkscape.org/namespaces/inkscape"
   inkscape:version="1.0 (6e3e5246a0, 2020-05-07)"
   sodipodi:docname="22133.svg"
   viewBox="0 0 768 384"
   height="384"
   width="768"
   xml:space="preserve"
   id="svg66"
   version="1.1"><metadata
     id="metadata72"><rdf:RDF><cc:Work
         rdf:about=""><dc:format>image/svg+xml</dc:format><dc:type
           rdf:resource="http://purl.org/dc/dcmitype/StillImage" /><dc:title></dc:title></cc:Work></rdf:RDF></metadata><defs
     id="defs70"><clipPath
       id="clipPath86"
       clipPathUnits="userSpaceOnUse"><path
         id="path84"
         d="m 1559.88,2433.23 c 304.61,-304.6 304.61,-798.47 0,-1103.08 -304.61,-304.61 -798.478,-304.61 -1103.087,0 -304.609,304.61 -304.609,798.48 0,1103.08 304.609,304.61 798.477,304.61 1103.087,0 z" /></clipPath><linearGradient
       id="linearGradient92"
       spreadMethod="pad"
       gradientTransform="matrix(-1358.55,1358.55,1358.55,1358.55,1531.6,1358.43)"
       gradientUnits="userSpaceOnUse"
       y2="0"
       x2="1"
       y1="0"
       x1="0"><stop
         id="stop88"
         offset="0"
         style="stop-opacity:1;stop-color:#4abcc4" /><stop
         id="stop90"
         offset="1"
         style="stop-opacity:1;stop-color:#62c784" /></linearGradient><clipPath
       id="clipPath102"
       clipPathUnits="userSpaceOnUse"><path
         id="path100"
         d="m 4242.21,381.398 c -304.6,304.614 -304.6,798.472 0,1103.082 304.61,304.61 798.48,304.61 1103.09,0 304.61,-304.61 304.61,-798.468 0,-1103.082 -304.61,-304.6089 -798.48,-304.6089 -1103.09,0 z" /></clipPath><linearGradient
       id="linearGradient108"
       spreadMethod="pad"
       gradientTransform="matrix(1358.55,-1358.55,-1358.55,-1358.55,4270.5,1456.2)"
       gradientUnits="userSpaceOnUse"
       y2="0"
       x2="1"
       y1="0"
       x1="0"><stop
         id="stop104"
         offset="0"
         style="stop-opacity:1;stop-color:#4abcc4" /><stop
         id="stop106"
         offset="1"
         style="stop-opacity:1;stop-color:#62c784" /></linearGradient><clipPath
       id="clipPath384"
       clipPathUnits="userSpaceOnUse"><path
         id="path382"
         d="m 3255.6,782.141 c -0.16,0 -0.32,0 -0.48,0 h -0.25 c -249.91,0 -499.83,0 -749.74,0 h -0.25 c -0.17,0 -0.32,0 -0.49,0 -37.44,0 -74.64,15.73 -100.74,42.109 -26.49,26.219 -42.25,63.621 -42.11,101.23 v 0.29 c -0.14,37.609 15.62,75.01 42.11,101.23 26.1,26.37 63.28,42.11 100.71,42.11 0.17,0 0.35,0 0.52,0 h 0.25 c 0,0 249.94,0 749.84,0 0,-7.89 0,-11.82 0,-11.82 0,-3.95 0,-7.9 0,-11.84 0,-3.95 0,-7.89 0,-11.83 0,-3.94 0,-7.89 0,-11.83 v 0 h -749.94 c -52.89,0 -96.17,-43.27 -96.17,-96.169 0,-52.891 43.28,-96.16 96.17,-96.16 h 749.94 c 52.89,0 96.16,43.269 96.16,96.16 0,52.899 -43.27,96.169 -96.16,96.169 v 0 0 c 0,3.94 0,7.89 0,11.83 0,3.94 0,7.88 0,11.83 0,3.94 0,7.89 0,11.84 0,0 0,3.93 0,11.82 37.85,-0.03 69.47,-15.11 90.94,-32.66 21.49,-18.07 34.35,-38.411 41.48,-55.739 7.38,-17.371 9.09,-31.652 10.35,-40.891 0.47,-9.359 0.71,-14.05 0.71,-14.05 v -0.29 c 0.14,-37.609 -15.61,-75.011 -42.1,-101.23 -26.11,-26.379 -63.31,-42.109 -100.75,-42.109" /></clipPath></defs><sodipodi:namedview
     inkscape:current-layer="g76"
     inkscape:window-maximized="1"
     inkscape:window-y="0"
     inkscape:window-x="0"
     inkscape:cy="207.63428"
     inkscape:cx="460.10417"
     inkscape:zoom="1.1481278"
     inkscape:snap-to-guides="true"
     inkscape:snap-grids="true"
     showgrid="false"
     id="namedview68"
     inkscape:window-height="1043"
     inkscape:window-width="1920"
     inkscape:pageshadow="2"
     inkscape:pageopacity="0"
     guidetolerance="10"
     gridtolerance="10"
     objecttolerance="10"
     borderopacity="1"
     bordercolor="#666666"
     pagecolor="#ffffff" /><g
     style="display:inline;opacity:1"
     transform="matrix(1.3333333,0,0,-1.3333333,0,384)"
     inkscape:label="ink_ext_XXXXXX"
     inkscape:groupmode="layer"
     id="g74"><g
       style="opacity:1"
       transform="scale(0.1)"
       id="g76"><path
         id="path78"
         style="fill:#4abcc5;fill-opacity:1;fill-rule:nonzero;stroke:none"
         d="M 0,-2.7999998e-5 H 5760.0001 V 2880.0001 H 0 Z" /><g
         id="g80"><g
           clip-path="url(#clipPath86)"
           id="g82"><path
             id="path94"
             style="fill:url(#linearGradient92);fill-opacity:1;fill-rule:nonzero;stroke:none"
             d="m 1559.88,2433.23 c 304.61,-304.6 304.61,-798.47 0,-1103.08 -304.61,-304.61 -798.478,-304.61 -1103.087,0 -304.609,304.61 -304.609,798.48 0,1103.08 304.609,304.61 798.477,304.61 1103.087,0" /></g></g><g
         transform="translate(16.3774,-1.6771815)"
         id="g96"><g
           clip-path="url(#clipPath102)"
           id="g98"><path
             id="path110"
             style="fill:url(#linearGradient108);fill-opacity:1;fill-rule:nonzero;stroke:none"
             d="m 4242.21,381.398 c -304.6,304.614 -304.6,798.472 0,1103.082 304.61,304.61 798.48,304.61 1103.09,0 304.61,-304.61 304.61,-798.468 0,-1103.082 -304.61,-304.6089 -798.48,-304.6089 -1103.09,0" /></g></g><path
         id="path408"
         style="fill:#ffffff;fill-opacity:1;fill-rule:nonzero;stroke:none"
         d="m 1040.1347,1866.5001 c -8.96,0 -17.92,3.42 -24.75,10.25 -13.67,13.66 -13.67,35.83 0,49.5 l 903.33,903.33 c 13.68,13.67 35.84,13.66 49.5,0 13.67,-13.67 13.67,-35.83 0,-49.49 l -903.33,-903.34 c -6.84,-6.83 -15.8,-10.25 -24.75,-10.25" /><path
         id="path410"
         style="fill:#ffffff;fill-opacity:1;fill-rule:nonzero;stroke:none"
         d="m -234.992,230.02 c -1.281,0 -2.559,0.492 -3.535,1.46 -1.953,1.961 -1.953,5.122 0,7.071 L 1054.8,1531.89 c 1.96,1.96 5.12,1.96 7.07,0 1.96,-1.95 1.96,-5.11 0,-7.07 L -231.457,231.48 c -0.977,-0.968 -2.258,-1.46 -3.535,-1.46" /><path
         id="path412"
         style="fill:#ffffff;fill-opacity:1;fill-rule:nonzero;stroke:none;stroke-width:0.820154"
         d="m 4598.6408,988.16033 c -1.0534,0 -2.1068,0.4005 -2.9133,1.19333 -1.6048,1.602 -1.6048,4.18481 0,5.77864 L 5698.508,2090.3777 c 1.6131,1.602 4.2136,1.602 5.8184,0 1.6131,-1.5938 1.6131,-4.1766 0,-5.7786 L 4601.5459,989.35366 c -0.7983,-0.79283 -1.8517,-1.19333 -2.9051,-1.19333" /><path
         id="path414"
         style="fill:#ffffff;fill-opacity:1;fill-rule:nonzero;stroke:none"
         d="m 3711.5199,1279.753 c -25.59,0 -51.19,9.77 -70.71,29.29 -39.05,39.05 -39.05,102.37 0,141.42 l 1340,1340 c 39.05,39.05 102.37,39.05 141.42,0 39.05,-39.05 39.05,-102.37 0,-141.42 l -1340,-1340 c -19.52,-19.52 -45.12,-29.29 -70.71,-29.29" /><path
         id="path416"
         style="fill:#ffffff;fill-opacity:1;fill-rule:nonzero;stroke:none"
         d="m 669.87277,77.021872 c -25.5899,0 -51.1875,9.762 -70.711,29.288998 -39.0507,39.051 -39.0507,102.372 0,141.422 L 1939.1609,1587.7329 c 39.05,39.051 102.37,39.051 141.43,0 39.04,-39.05 39.04,-102.371 0,-141.422 L 740.58757,106.31087 c -19.5273,-19.526998 -45.125,-29.288998 -70.7148,-29.288998" /><path
         id="path418"
         style="fill:#ffffff;fill-opacity:1;fill-rule:nonzero;stroke:none"
         d="m 4255.6209,48.713067 c -2.56,0 -5.12,0.981 -7.07,2.93 -3.91,3.91 -3.91,10.231 0,14.141 l 990.83,990.832033 c 3.9,3.91 10.23,3.91 14.14,0 3.91,-3.91 3.91,-10.231 0,-14.141 l -990.83,-990.832033 c -1.95,-1.949 -4.51,-2.93 -7.07,-2.93" /><path
         id="path420"
         style="fill:#ffffff;fill-opacity:1;fill-rule:nonzero;stroke:none"
         d="m 3695.01,523.359 c -8.96,0 -17.92,3.422 -24.75,10.25 -13.67,13.672 -13.67,35.832 0,49.5 l 696.66,696.661 c 13.68,13.66 35.84,13.66 49.5,0 13.67,-13.67 13.67,-35.83 0,-49.5 L 3719.76,533.609 c -6.84,-6.828 -15.8,-10.25 -24.75,-10.25" /><path
         id="path422"
         style="fill:#ffffff;fill-opacity:1;fill-rule:nonzero;stroke:none"
         d="m 2105.01,2385.02 c -1.28,0 -2.56,0.49 -3.54,1.46 -1.95,1.96 -1.95,5.12 0,7.07 l 316.67,316.68 c 1.95,1.95 5.11,1.95 7.07,0 1.95,-1.96 1.95,-5.12 0,-7.08 l -316.67,-316.67 c -0.97,-0.97 -2.25,-1.46 -3.53,-1.46" /><path
         id="path424"
         style="fill:#ffffff;fill-opacity:1;fill-rule:nonzero;stroke:none"
         d="m 111.672,1550.02 c -1.277,0 -2.559,0.49 -3.535,1.46 -1.953,1.96 -1.953,5.12 0,7.07 L 1141.47,2591.89 c 1.96,1.96 5.12,1.96 7.07,0 1.96,-1.95 1.96,-5.11 0,-7.07 L 115.207,1551.48 c -0.977,-0.97 -2.254,-1.46 -3.535,-1.46" /></g></g></svg>
