<?xml version="1.0" encoding="UTF-8" standalone="no"?>
<svg
   xmlns:dc="http://purl.org/dc/elements/1.1/"
   xmlns:cc="http://creativecommons.org/ns#"
   xmlns:rdf="http://www.w3.org/1999/02/22-rdf-syntax-ns#"
   xmlns:svg="http://www.w3.org/2000/svg"
   xmlns="http://www.w3.org/2000/svg"
   xmlns:sodipodi="http://sodipodi.sourceforge.net/DTD/sodipodi-0.dtd"
   xmlns:inkscape="http://www.inkscape.org/namespaces/inkscape"
   version="1.1"
   id="svg66"
   xml:space="preserve"
   width="768"
   height="384"
   viewBox="0 0 768 384"
   sodipodi:docname="Circles_future_75.svg"
   inkscape:version="1.0 (6e3e5246a0, 2020-05-07)"
   inkscape:export-filename="/home/gblur/Documents/epsimages/Banner_Layer/Stripes_50.png"
   inkscape:export-xdpi="96"
   inkscape:export-ydpi="96"><metadata
     id="metadata72"><rdf:RDF><cc:Work
         rdf:about=""><dc:format>image/svg+xml</dc:format><dc:type
           rdf:resource="http://purl.org/dc/dcmitype/StillImage" /><dc:title></dc:title></cc:Work></rdf:RDF></metadata><defs
     id="defs70"><clipPath
       clipPathUnits="userSpaceOnUse"
       id="clipPath86"><path
         d="m 1559.88,2433.23 c 304.61,-304.6 304.61,-798.47 0,-1103.08 -304.61,-304.61 -798.478,-304.61 -1103.087,0 -304.609,304.61 -304.609,798.48 0,1103.08 304.609,304.61 798.477,304.61 1103.087,0 z"
         id="path84" /></clipPath><linearGradient
       x1="0"
       y1="0"
       x2="1"
       y2="0"
       gradientUnits="userSpaceOnUse"
       gradientTransform="matrix(-1358.55,1358.55,1358.55,1358.55,1531.6,1358.43)"
       spreadMethod="pad"
       id="linearGradient92"><stop
         style="stop-opacity:1;stop-color:#4abcc4"
         offset="0"
         id="stop88" /><stop
         style="stop-opacity:1;stop-color:#62c784"
         offset="1"
         id="stop90" /></linearGradient><clipPath
       clipPathUnits="userSpaceOnUse"
       id="clipPath102"><path
         d="m 4242.21,381.398 c -304.6,304.614 -304.6,798.472 0,1103.082 304.61,304.61 798.48,304.61 1103.09,0 304.61,-304.61 304.61,-798.468 0,-1103.082 -304.61,-304.6089 -798.48,-304.6089 -1103.09,0 z"
         id="path100" /></clipPath><linearGradient
       x1="0"
       y1="0"
       x2="1"
       y2="0"
       gradientUnits="userSpaceOnUse"
       gradientTransform="matrix(1358.55,-1358.55,-1358.55,-1358.55,4270.5,1456.2)"
       spreadMethod="pad"
       id="linearGradient108"><stop
         style="stop-opacity:1;stop-color:#4abcc4"
         offset="0"
         id="stop104" /><stop
         style="stop-opacity:1;stop-color:#62c784"
         offset="1"
         id="stop106" /></linearGradient><clipPath
       clipPathUnits="userSpaceOnUse"
       id="clipPath384"><path
         d="m 3255.6,782.141 c -0.16,0 -0.32,0 -0.48,0 h -0.25 c -249.91,0 -499.83,0 -749.74,0 h -0.25 c -0.17,0 -0.32,0 -0.49,0 -37.44,0 -74.64,15.73 -100.74,42.109 -26.49,26.219 -42.25,63.621 -42.11,101.23 v 0.29 c -0.14,37.609 15.62,75.01 42.11,101.23 26.1,26.37 63.28,42.11 100.71,42.11 0.17,0 0.35,0 0.52,0 h 0.25 c 0,0 249.94,0 749.84,0 0,-7.89 0,-11.82 0,-11.82 0,-3.95 0,-7.9 0,-11.84 0,-3.95 0,-7.89 0,-11.83 0,-3.94 0,-7.89 0,-11.83 v 0 h -749.94 c -52.89,0 -96.17,-43.27 -96.17,-96.169 0,-52.891 43.28,-96.16 96.17,-96.16 h 749.94 c 52.89,0 96.16,43.269 96.16,96.16 0,52.899 -43.27,96.169 -96.16,96.169 v 0 0 c 0,3.94 0,7.89 0,11.83 0,3.94 0,7.88 0,11.83 0,3.94 0,7.89 0,11.84 0,0 0,3.93 0,11.82 37.85,-0.03 69.47,-15.11 90.94,-32.66 21.49,-18.07 34.35,-38.411 41.48,-55.739 7.38,-17.371 9.09,-31.652 10.35,-40.891 0.47,-9.359 0.71,-14.05 0.71,-14.05 v -0.29 c 0.14,-37.609 -15.61,-75.011 -42.1,-101.23 -26.11,-26.379 -63.31,-42.109 -100.75,-42.109"
         id="path382" /></clipPath><linearGradient
       id="linearGradient92-3"
       spreadMethod="pad"
       gradientTransform="matrix(-181.14,-181.14,181.14,-181.14,205.72824,198.27984)"
       gradientUnits="userSpaceOnUse"
       y2="0"
       x2="1"
       y1="0"
       x1="0"><stop
         id="stop88-6"
         offset="0"
         style="stop-opacity:1;stop-color:#4abcc4" /><stop
         id="stop90-7"
         offset="1"
         style="stop-opacity:1;stop-color:#62c784" /></linearGradient><linearGradient
       id="linearGradient108-5"
       spreadMethod="pad"
       gradientTransform="matrix(181.14,181.14,-181.14,181.14,573.09855,185.46746)"
       gradientUnits="userSpaceOnUse"
       y2="0"
       x2="1"
       y1="0"
       x1="0"><stop
         id="stop104-3"
         offset="0"
         style="stop-opacity:1;stop-color:#4abcc4" /><stop
         id="stop106-5"
         offset="1"
         style="stop-opacity:1;stop-color:#62c784" /></linearGradient><clipPath
       id="clipPath86-6"
       clipPathUnits="userSpaceOnUse"><path
         id="path84-2"
         d="m 1559.88,2433.23 c 304.61,-304.6 304.61,-798.47 0,-1103.08 -304.61,-304.61 -798.478,-304.61 -1103.087,0 -304.609,304.61 -304.609,798.48 0,1103.08 304.609,304.61 798.477,304.61 1103.087,0 z" /></clipPath><clipPath
       id="clipPath102-9"
       clipPathUnits="userSpaceOnUse"><path
         id="path100-1"
         d="m 4242.21,381.398 c -304.6,304.614 -304.6,798.472 0,1103.082 304.61,304.61 798.48,304.61 1103.09,0 304.61,-304.61 304.61,-798.468 0,-1103.082 -304.61,-304.6089 -798.48,-304.6089 -1103.09,0 z" /></clipPath></defs><sodipodi:namedview
     inkscape:document-rotation="0"
     pagecolor="#ffffff"
     bordercolor="#666666"
     borderopacity="1"
     objecttolerance="10"
     gridtolerance="10"
     guidetolerance="10"
     inkscape:pageopacity="0"
     inkscape:pageshadow="2"
     inkscape:window-width="1920"
     inkscape:window-height="1043"
     id="namedview68"
     showgrid="false"
     inkscape:snap-grids="true"
     inkscape:snap-to-guides="true"
     inkscape:zoom="1.1481278"
     inkscape:cx="319.00489"
     inkscape:cy="207.63428"
     inkscape:window-x="0"
     inkscape:window-y="0"
     inkscape:window-maximized="1"
     inkscape:current-layer="layer2" /><g
     id="g74"
     inkscape:groupmode="layer"
     inkscape:label="ink_ext_XXXXXX"
     transform="matrix(1.3333333,0,0,-1.3333333,0,384)"
     style="display:inline;opacity:1;mix-blend-mode:normal"><g
       inkscape:groupmode="layer"
       id="layer5"
       inkscape:label="ink_ext_XXXXXX 1"
       style="display:none"
       transform="matrix(0.75000002,0,0,-0.75000002,0,288.00001)"><g
         style="display:inline;opacity:1;mix-blend-mode:normal"
         transform="matrix(0.13333333,0,0,-0.13333333,0,384.00001)"
         id="g76"><path
           id="path78"
           style="fill:#4abcc5;fill-opacity:1;fill-rule:nonzero;stroke:none"
           d="M 0,-2.7999998e-5 H 5760.0001 V 2880.0001 H 0 Z" /><g
           id="g80"><g
             clip-path="url(#clipPath86-6)"
             id="g82" /></g><g
           transform="translate(16.3774,-1.6771815)"
           id="g96"><g
             clip-path="url(#clipPath102-9)"
             id="g98" /></g></g></g><g
       style="display:inline"
       inkscape:label="Future"
       id="layer2"
       inkscape:groupmode="layer"><ellipse
         transform="matrix(-0.31729692,0.94832624,0.96446608,0.2642067,0,0)"
         style="display:inline;opacity:1;mix-blend-mode:normal;fill:none;stroke:#ffffff;stroke-width:8.1587;stroke-miterlimit:4;stroke-dasharray:24.4759, 8.1587;stroke-dashoffset:0;stroke-opacity:1"
         id="path172"
         cx="22.13666"
         cy="190.15627"
         rx="27.137762"
         ry="27.380484" /><ellipse
         transform="scale(1,-1)"
         style="display:inline;opacity:1;mix-blend-mode:normal;fill:none;stroke:#ffffff;stroke-width:5.56043;stroke-miterlimit:4;stroke-dasharray:none;stroke-dashoffset:0;stroke-opacity:1"
         id="ellipse2933"
         cx="220.57185"
         cy="-182.50928"
         rx="19.280218"
         ry="17.901218" /><ellipse
         ry="27.011023"
         rx="31.442595"
         cy="-177.93518"
         cx="425.50488"
         id="ellipse2935"
         style="display:inline;opacity:1;mix-blend-mode:normal;fill:none;stroke:#ffffff;stroke-width:8.72254;stroke-miterlimit:4;stroke-dasharray:26.1675, 8.72254;stroke-dashoffset:0;stroke-opacity:1"
         transform="scale(1,-1)" /><ellipse
         ry="12.616224"
         rx="14.686108"
         cy="-177.9444"
         cx="425.38452"
         id="ellipse2937"
         style="display:inline;opacity:1;mix-blend-mode:normal;fill:none;stroke:#ffffff;stroke-width:4.07408;stroke-miterlimit:4;stroke-dasharray:none;stroke-dashoffset:0;stroke-opacity:1"
         transform="scale(1,-1)" /></g><g
       inkscape:groupmode="layer"
       id="layer3"
       inkscape:label="Circles_0"
       style="display:none"
       transform="matrix(0.75000002,0,0,-0.75000002,0,288.00001)"><path
         id="path94"
         style="display:inline;opacity:1;mix-blend-mode:normal;fill:url(#linearGradient92-3);fill-opacity:1;fill-rule:nonzero;stroke:none;stroke-width:0.133333"
         d="m 209.4989,54.973177 c 40.61467,40.613333 40.61467,106.462663 0,147.077333 -40.61466,40.61466 -106.46374,40.61466 -147.078271,0 -40.614532,-40.61467 -40.614532,-106.464 0,-147.077333 40.614531,-40.614665 106.463611,-40.614665 147.078271,0" /><path
         id="path110"
         style="display:inline;opacity:1;mix-blend-mode:normal;fill:url(#linearGradient108-5);fill-opacity:1;fill-rule:nonzero;stroke:none;stroke-width:0.133333"
         d="m 569.32655,328.77439 c -40.61334,-40.6152 -40.61334,-106.46293 0,-147.07759 40.61466,-40.61467 106.46399,-40.61467 147.07866,0 40.61467,40.61466 40.61467,106.46239 0,147.07759 -40.61467,40.61452 -106.464,40.61452 -147.07866,0" /></g><g
       inkscape:groupmode="layer"
       id="layer1"
       inkscape:label="Stripes_100"
       style="display:none;opacity:0.573355;mix-blend-mode:normal"><path
         id="path414"
         style="display:inline;opacity:1;fill:#ffffff;fill-opacity:1;fill-rule:nonzero;stroke:none;stroke-width:0.0999997"
         d="m 371.91644,128.24884 c -2.559,0 -5.11899,0.977 -7.071,2.929 -3.90499,3.90499 -3.90499,10.237 0,14.142 l 134.00001,134 c 3.90499,3.905 10.237,3.905 14.142,0 3.90499,-3.905 3.90499,-10.237 0,-14.142 l -134.00001,-134 c -1.95199,-1.952 -4.512,-2.929 -7.071,-2.929" /><path
         id="path416"
         style="display:inline;opacity:1;fill:#ffffff;fill-opacity:1;fill-rule:nonzero;stroke:none;stroke-width:0.0999997"
         d="m 67.751734,7.9757292 c -2.55899,0 -5.11875,0.9762 -7.0711,2.9288998 -3.90507,3.905101 -3.90507,10.237201 0,14.142196 L 194.68055,159.04683 c 3.90499,3.9051 10.237,3.9051 14.143,0 3.90399,-3.90501 3.90399,-10.23711 0,-14.14221 L 74.823215,10.904629 C 72.870485,8.9519292 70.310714,7.9757292 67.751734,7.9757292" /></g><g
       inkscape:groupmode="layer"
       id="layer4"
       inkscape:label="smallStripes_50"
       transform="matrix(0.75000002,0,0,-0.75000002,0,288.00001)"
       style="display:none;opacity:1"><path
         id="path408"
         style="display:inline;opacity:1;mix-blend-mode:normal;fill:#ffffff;fill-opacity:1;fill-rule:nonzero;stroke:none;stroke-width:0.133333"
         d="m 158.13055,141.88042 c -1.19466,0 -2.38933,-0.456 -3.3,-1.36666 -1.82266,-1.82134 -1.82266,-4.77734 0,-6.6 l 120.444,-120.443993 c 1.824,-1.822666 4.77867,-1.821333 6.6,0 1.82267,1.822667 1.82267,4.777334 0,6.598667 l -120.444,120.445326 c -0.912,0.91066 -2.10666,1.36666 -3.3,1.36666" /><path
         id="path410"
         style="display:inline;opacity:1;mix-blend-mode:normal;fill:#ffffff;fill-opacity:1;fill-rule:nonzero;stroke:none;stroke-width:0.133333"
         d="m -11.886336,360.07777 c -0.1708,0 -0.3412,-0.0656 -0.47133,-0.19466 -0.2604,-0.26147 -0.2604,-0.68294 0,-0.9428 L 160.08593,186.49511 c 0.26133,-0.26133 0.68266,-0.26133 0.94266,0 0.26134,0.26 0.26134,0.68134 0,0.94267 L -11.414996,359.88311 c -0.13027,0.12906 -0.30107,0.19466 -0.47134,0.19466" /><path
         id="path412"
         style="display:inline;opacity:1;mix-blend-mode:normal;fill:#ffffff;fill-opacity:1;fill-rule:nonzero;stroke:none;stroke-width:0.109354"
         d="m 632.59802,258.9924 c -0.14045,0 -0.28091,-0.0534 -0.38844,-0.15911 -0.21397,-0.2136 -0.21397,-0.55798 0,-0.77049 L 779.24695,112.03009 c 0.2151,-0.2136 0.5618,-0.2136 0.7758,0 0.2151,0.21249 0.2151,0.55687 0,0.77047 L 632.98537,258.83329 c -0.10644,0.10571 -0.2469,0.15911 -0.38735,0.15911" /><path
         id="path418"
         style="display:inline;opacity:1;mix-blend-mode:normal;fill:#ffffff;fill-opacity:1;fill-rule:nonzero;stroke:none;stroke-width:0.133333"
         d="m 586.86204,384.25203 c -0.34134,0 -0.68267,-0.1308 -0.94267,-0.39066 -0.52133,-0.52134 -0.52133,-1.36414 0,-1.88547 L 718.03003,249.86496 c 0.52,-0.52133 1.364,-0.52133 1.88534,0 0.52133,0.52134 0.52133,1.36414 0,1.88547 L 587.8047,383.86137 c -0.26,0.25986 -0.60133,0.39066 -0.94266,0.39066" /><path
         id="path420"
         style="display:inline;opacity:1;mix-blend-mode:normal;fill:#ffffff;fill-opacity:1;fill-rule:nonzero;stroke:none;stroke-width:0.133333"
         d="m 512.11392,320.96591 c -1.19467,0 -2.38934,-0.45627 -3.3,-1.36667 -1.82267,-1.82293 -1.82267,-4.7776 0,-6.6 l 92.88799,-92.88813 c 1.824,-1.82133 4.77867,-1.82133 6.6,0 1.82267,1.82267 1.82267,4.77733 0,6.6 l -92.88799,92.88813 c -0.912,0.9104 -2.10667,1.36667 -3.3,1.36667" /><path
         id="path422"
         style="display:inline;opacity:1;mix-blend-mode:normal;fill:#ffffff;fill-opacity:1;fill-rule:nonzero;stroke:none;stroke-width:0.133333"
         d="m 300.11392,72.744447 c -0.17066,0 -0.34133,-0.06533 -0.472,-0.194667 -0.26,-0.261333 -0.26,-0.682667 0,-0.942667 l 42.22267,-42.223999 c 0.26,-0.26 0.68133,-0.26 0.94266,0 0.26,0.261334 0.26,0.682667 0,0.944 L 300.58459,72.54978 c -0.12933,0.129333 -0.3,0.194667 -0.47067,0.194667" /><path
         id="path424"
         style="display:inline;opacity:1;mix-blend-mode:normal;fill:#ffffff;fill-opacity:1;fill-rule:nonzero;stroke:none;stroke-width:0.133333"
         d="m 34.335534,184.07778 c -0.17027,0 -0.3412,-0.0653 -0.47133,-0.19467 -0.2604,-0.26133 -0.2604,-0.68266 0,-0.94266 L 171.64193,45.161781 c 0.26133,-0.261334 0.68266,-0.261334 0.94266,0 0.26134,0.26 0.26134,0.681333 0,0.942666 L 34.806864,183.88311 c -0.13027,0.12934 -0.30053,0.19467 -0.47133,0.19467" /></g></g></svg>
